<svg xmlns="http://www.w3.org/2000/svg" version="1.0" viewBox="0 0 324 216">
  <path fill="#FFF" d="M0 0h324v216H0z"/>
  <g fill="red">
    <path d="M0 0h324v70.667H0zM0 144h324v72H0z"/>
  </g>
  <g fill="red">
    <path d="M162.434 78.324l3.065 9.387h9.517l-7.615 5.893 2.751 9.386-7.718-5.566-7.72 5.566 2.75-9.386-7.614-5.893h9.517zM162.434 112.074l3.065 9.387h9.517l-7.615 5.893 2.751 9.386-7.718-5.566-7.72 5.566 2.75-9.386-7.614-5.893h9.517zM193.434 95.324l3.065 9.387h9.517l-7.615 5.893 2.751 9.386-7.718-5.566-7.72 5.566 2.75-9.386-7.614-5.893h9.517zM131.434 94.824l3.065 9.387h9.517l-7.615 5.893 2.751 9.386-7.718-5.566-7.72 5.566 2.75-9.386-7.614-5.893h9.517z"/>
  </g>
</svg>